inDegrees=yes
name=ik_S50_A09_T01
DataType=double
version=3
OpenSimVersion=4.3-2021-08-27-4bc7ad9
endheader
time	pelvis_tilt	pelvis_list	pelvis_rotation	pelvis_tx	pelvis_ty	pelvis_tz	hip_flexion_r	hip_adduction_r	hip_rotation_r	knee_angle_r	knee_angle_r_beta	ankle_angle_r	subtalar_angle_r	mtp_angle_r	hip_flexion_l	hip_adduction_l	hip_rotation_l	knee_angle_l	knee_angle_l_beta	ankle_angle_l	subtalar_angle_l	mtp_angle_l	lumbar_extension	lumbar_bending	lumbar_rotation	arm_flex_r	arm_add_r	arm_rot_r	elbow_flex_r	pro_sup_r	wrist_flex_r	wrist_dev_r	arm_flex_l	arm_add_l	arm_rot_l	elbow_flex_l	pro_sup_l	wrist_flex_l	wrist_dev_l
0	0	0	0	0	0.9399999999999999	0	0	0	0	0	0	0	0	0	0	0	0	0	0	0	0	0	0	0	0	0	0	0	0	89.99999999963507	0	0	0	0	0	0	89.99999999869995	0	0
0.02	-6.718572407063136	-2.424710045795436	27.40899771544619	0	0.9399999999999999	0	3.438314348865978	-1.625887644725414	-1.15957451650147	5.313299882250522	0.09273457709109863	0	0	0	3.438314348865978	-1.625887644725414	-1.15957451650147	5.313299882250522	0.09273457709109863	0	0	0	-4.226081689961251	-2.919996659286552	6.006977595577259	11.34906481818971	-7.740295959626974	-1.727677362118961	64.42543775066979	113.3902794253036	0	0	12.67882347796567	-12.92237828742298	-7.707014929993	67.30822271166537	131.9481093562875	0	0
0.04	-6.420323927222281	-2.662732616911492	26.86417151042038	0	0.9399999999999999	0	32.41979696368678	-12.71080843080716	-9.755269849948339	46.30743344132803	0.8082171816993025	0	0	0	32.41979696368678	-12.71080843080716	-9.755269849948339	46.30743344132803	0.8082171816993025	0	0	0	-4.365217579202802	-2.621569813229775	6.589306433213221	11.3525168609218	-7.732670928702492	-1.723977828059321	64.42510073824927	113.3914799511037	0	0	12.68372575762901	-12.93692016478335	-7.683080372141839	67.29754321428675	131.9562946661362	0	0
0.06	-6.421088796030837	-2.663049617680657	26.86601461325666	0	0.9399999999999999	0	32.44637644877755	-12.69259568584815	-9.756356703687883	46.31977452620345	0.8084325742636467	0	0	0	32.44637644877755	-12.69259568584815	-9.756356703687883	46.31977452620345	0.8084325742636467	0	0	0	-4.369369929130436	-2.617944813471166	6.590400305182831	11.35882106645803	-7.743730890198569	-1.71786016671158	64.44964304416818	113.3553233896922	0	0	12.70328757379205	-12.94669182999004	-7.640542585426288	67.3186354397054	131.8881383322394	0	0
0.08	-6.417998076094698	-2.663272135688274	26.88192815670086	0	0.9399999999999999	0	32.4573369142308	-12.68585705052558	-9.756781557165471	46.32500251083061	0.8085238198086343	0	0	0	32.4573369142308	-12.68585705052558	-9.756781557165471	46.32500251083061	0.8085238198086343	0	0	0	-4.368083525035665	-2.618183995933509	6.591615394617126	11.36268233614513	-7.73100391250823	-1.745173588912776	64.45336076395552	113.3465830528865	0	0	12.68304683710082	-12.94544058542026	-7.655753046955537	67.31999710421394	131.8975188512306	0	0
0.1	-6.419572920242458	-2.662751027985037	26.88654935419792	0	0.9399999999999999	0	32.46445931320555	-12.67967826839679	-9.757110890676648	46.32816577823323	0.8085790292399311	0	0	0	32.46445931320555	-12.67967826839679	-9.757110890676648	46.32816577823323	0.8085790292399311	0	0	0	-4.370203243312536	-2.615891260894434	6.590007847847483	11.35149258606632	-7.725840660366178	-1.725830457530429	64.45236359200814	113.3453502692188	0	0	12.68820615686682	-12.94863354604114	-7.64844076290351	67.32504291310666	131.8851946858711	0	0
0.12	-6.423101435075178	-2.667337396131268	26.89014520930169	0	0.9399999999999999	0	32.4772516649871	-12.66995608604963	-9.757662082976355	46.3339781547275	0.8086804743471214	0	0	0	32.4772516649871	-12.66995608604963	-9.757662082976355	46.3339781547275	0.8086804743471214	0	0	0	-4.377087248079304	-2.616506422716406	6.588567154898589	11.36136332260143	-7.727565083667157	-1.720012605768134	64.45990749636638	113.3328419332337	0	0	12.69403687721046	-12.95678681317896	-7.643516004715083	67.33330996030948	131.8602446296643	0	0
0.14	-6.425413561987062	-2.671105714386833	26.88396790531489	0	0.9399999999999999	0	32.46971400514334	-12.67290306073337	-9.757417234736716	46.33026946904369	0.8086157455710173	0	0	0	32.46971400514334	-12.67290306073337	-9.757417234736716	46.33026946904369	0.8086157455710173	0	0	0	-4.37996927222986	-2.619665256483668	6.585791834751936	11.3596116377355	-7.710448398489905	-1.715583760373585	64.44221446651744	113.3686070712486	0	0	12.6860492776844	-12.94688318052083	-7.660398631601148	67.32228689179998	131.9249606363812	0	0
0.16	-6.433227654780064	-2.680203440892102	26.89475393046256	0	0.9399999999999999	0	32.47985762803574	-12.66349549336562	-9.757907211566982	46.33468482915176	0.8086928081425645	0	0	0	32.47985762803574	-12.66349549336562	-9.757907211566982	46.33468482915176	0.8086928081425645	0	0	0	-4.392269270132402	-2.622903196037579	6.585594078109667	11.36697909439164	-7.701924748450099	-1.715198721882828	64.44811283989169	113.3580038084338	0	0	12.69417081820809	-12.94030982859656	-7.673031800143003	67.3304758564863	131.9012832063168	0	0
0.18	-6.433835821006854	-2.682997781285125	26.89187674374781	0	0.9399999999999999	0	32.48975760301559	-12.65540632356625	-9.758353669151296	46.33917734331552	0.8087712173064145	0	0	0	32.48975760301559	-12.65540632356625	-9.758353669151296	46.33917734331552	0.8087712173064145	0	0	0	-4.395465501446943	-2.623449034255671	6.583347653376744	11.36966322393817	-7.70965036327459	-1.706905847317628	64.45738372328474	113.3612186173926	0	1.167827950530431e-50	12.67092932996967	-12.94587703782325	-7.666389107839813	67.34291633585333	131.9072008772996	0	1.167827950530431e-50
0.2	-6.448013126811704	-2.695096055082594	26.90667613213111	0	0.9399999999999999	0	32.50856408297219	-12.64077808035189	-9.759176628424967	46.34768545098029	0.808919711798279	0	0	0	32.50856408297219	-12.64077808035189	-9.759176628424967	46.34768545098029	0.808919711798279	0	0	0	-4.416055117083581	-2.62497071234639	6.580675683231127	11.36966105777004	-7.707759971596118	-1.693396585895774	64.4808910655039	113.3408413958637	0	0	12.71569128037898	-12.94590076838618	-7.657740043920072	67.3641479157564	131.8631643993903	0	0
0.22	-6.449044700410378	-2.70136821787701	26.91427537131576	0	0.9399999999999999	0	32.51930280204927	-12.630616887888	-9.759702723724578	46.3523241920746	0.8090006731035222	0	0	0	32.51930280204927	-12.630616887888	-9.759702723724578	46.3523241920746	0.8090006731035222	0	0	0	-4.42098993226956	-2.628910788416322	6.582714425561202	11.38860865657058	-7.716055944138156	-1.670275632418296	64.4977863132541	113.3370448594089	0	0	12.70444678696573	-12.95931430945857	-7.623041219651102	67.3717771899002	131.845001193655	0	0
0.24	-6.452315653383353	-2.710656859255598	26.91594292688661	0	0.9399999999999999	0	32.53753582483755	-12.6195211551059	-9.76040719282998	46.36093023656949	0.8091508769155312	0	0	0	32.53753582483755	-12.6195211551059	-9.76040719282998	46.36093023656949	0.8091508769155312	0	0	0	-4.430621552066349	-2.632747257312396	6.57957971841768	11.38555821689243	-7.701197788147394	-1.662184836462278	64.51556002604673	113.3081787880175	0	0	12.71325984803714	-12.95209148930059	-7.605849746968389	67.38941659161094	131.8095722898324	0	0
